<?xml version="1.0" encoding="utf-8"?>
<!-- Generator: Adobe Illustrator 18.1.1, SVG Export Plug-In . SVG Version: 6.00 Build 0)  -->
<svg version="1.1" id="Layer_1" xmlns="http://www.w3.org/2000/svg" xmlns:xlink="http://www.w3.org/1999/xlink" x="0px" y="0px"
	 viewBox="0 0 990.4 236.1" enable-background="new 0 0 990.4 236.1" xml:space="preserve">
<path fill="#010101" d="M867.3,127.4h19.3v-19.5h-19.3V127.4z M283.7,80.5c0-18.8,13.2-31.8,30-31.8c7.4,0,14.4,1.2,19.5,3.7l6-15.3
	c-8.1-3.7-16.5-5.1-25.8-5.1c-26.4,0-49.2,19.3-49.2,48.5c0,30,23.4,48.5,50.3,48.5c9.1,0,17.9-1.4,25.5-5.3l-6-15.5
	c-5.4,2.8-11.8,4-19.2,4C299,112.3,283.7,101.2,283.7,80.5 M429.4,80.5c0,18.8-13.7,31.8-30.6,31.8c-17,0-30.6-13-30.6-31.8
	s13.7-31.8,30.6-31.8C415.7,48.7,429.4,61.7,429.4,80.5 M448.9,80.5c0-28.3-22.1-48.5-50.1-48.5c-28.1,0-50.1,20-50.1,48.5
	s22.1,48.5,50.1,48.5C426.9,129,448.9,109,448.9,80.5 M491.4,84h-9.8V49.7h12.7c10.5,0,17.7,6,17.7,17C512,78.2,504.8,84,491.4,84
	 M533.4,127.4l-29.7-29.2c16.9-3.7,27.8-15.5,27.8-31.6c0-18.3-13.9-32.9-36.9-32.9h-32.2v93.7h19.3V99.1l27.4,28.3H533.4z
	 M575.9,84h-9.8V49.7h12.7c10.5,0,17.7,6,17.7,17C596.5,78.2,589.3,84,575.9,84 M618.1,127.4l-29.7-29.2
	c16.9-3.7,27.8-15.5,27.8-31.6c0-18.3-13.9-32.9-36.9-32.9h-32.2v93.7h19.3V99.1l27.4,28.3H618.1z M631.5,127.4h58.7v-16.3h-39.5
	V91.6h32.2V75.2h-32.2V50.1h38.3V33.8h-57.5V127.4z M719,80.5c0-18.8,13.2-31.8,30-31.8c7.4,0,14.4,1.2,19.5,3.7l6-15.3
	c-8.1-3.7-16.5-5.1-25.8-5.1c-26.4,0-49.2,19.3-49.2,48.5c0,30,23.4,48.5,50.3,48.5c9.1,0,17.9-1.4,25.5-5.3l-5.8-15.5
	c-5.4,2.8-11.8,4-19.2,4C734.4,112.3,719,101.2,719,80.5 M828.3,50.1h25V33.8H784v16.3h25v77.3h19.3V50.1z M886.6,33.8h-19.3v60.1
	h19.3V33.8z M990.4,33.8h-20l-25.5,66.4l-25.5-66.4h-20l37.8,93.7h15.5L990.4,33.8z"/>
<g>
	<polygon fill="#FFFFFF" points="211.3,142.3 211.3,10.5 10.5,10.5 10.5,142.3 68.5,142.3 156.5,214 156.5,142.3 	"/>
	<path fill="#010101" d="M167,236.1L64.8,152.8H0V0h221.8v152.8H167V236.1z M21,131.8h51.3l73.7,60.2v-60.2h54.8V21H21V131.8z"/>
</g>
<path fill="#010101" d="M101.8,129.6h20.2v-20.5h-20.2V129.6z M121.9,31.4h-20.2v63h20.2V31.4z"/>
</svg>
